<svg id="Capa_1" enable-background="new 0 0 512 512" height="512" viewBox="0 0 512 512" width="512" xmlns="http://www.w3.org/2000/svg"><g><g><path d="m310.228 372.353h-184.665c-25.337 0-45.878 20.54-45.878 45.878v86.27h276.42v-86.27c0-25.338-20.54-45.878-45.877-45.878z" fill="#0ab69f"/><path d="m313.063 372.353h-33.925c25.337 0 45.878 20.54 45.878 45.878v86.27h33.925v-86.27c-.001-25.338-20.541-45.878-45.878-45.878z" fill="#01998d"/><path d="m219.313 419.232c-25.871 0-46.843-20.972-46.843-46.843v-112.73h93.686v112.73c0 25.871-20.972 46.843-46.843 46.843z" fill="#ffb09e"/><path d="m172.47 363.437c10.146 4.564 21.085 7.678 32.557 9.069-.015.002-.03.004-.044.006 21.967 2.687 42.874-.908 61.174-9.214v-103.639h-93.687z" fill="#ffa78f"/><path d="m332.497 137.5-13.922 8.63h-177.789l-29.084-9.88-24.536 9.88v91.847h261.34v-91.847z" fill="#935b44"/><path d="m160.74 259.024h-55.097c-21.183 0-38.355-17.172-38.355-38.355v-.236c0-21.183 17.172-38.355 38.355-38.355h55.097z" fill="#ffb09e"/><path d="m277.538 182.079h55.097c21.183 0 38.355 17.172 38.355 38.355v.236c0 21.183-17.172 38.355-38.355 38.355h-55.097z" fill="#ffa78f"/><path d="m217.738 87.566c-61.908.556-111.925 50.905-111.925 112.945v40.04c0 62.04 50.017 112.389 111.925 112.945 61.908-.556 111.925-50.905 111.925-112.945v-40.04c0-62.039-50.017-112.389-111.925-112.945z" fill="#ffcebf"/><path d="m156.475 260.284c-6.031 0-10.504 0-16.633 0-4.131 0-7.48 3.349-7.48 7.48s3.349 7.48 7.48 7.48h16.633c4.131 0 7.48-3.349 7.48-7.48s-3.349-7.48-7.48-7.48z" fill="#fe8f83"/><path d="m232.797 192.053-3.053-5.205c-7.235-12.334-8.672-27.229-3.928-40.718l-1.403-13.052h-103.728v13.052s36.793 55.616 69.705 45.923l-3.053-5.205c-3.401-5.798-5.503-12.162-6.302-18.679 13.72 14.286 33.347 29.308 51.762 23.884z" fill="#ac5e2e"/><g><path d="m229.743 186.848c-7.235-12.334-8.672-27.229-3.928-40.718l-1.403-13.052h-28.271l1.403 13.052c-4.448 12.649-3.462 26.533 2.644 38.384 10.303 6.768 21.67 10.761 32.609 7.539z" fill="#9e5528"/></g><path d="m219.54 87.554h-.769c-4.668 0-9.269.289-13.789.839 55.88 6.802 99.169 54.402 99.169 112.119v40.04c0 57.717-43.289 105.317-99.169 112.119 4.52.55 9.12.839 13.789.839h.769c62.385 0 112.958-50.573 112.958-112.958v-40.04c-.001-62.386-50.574-112.958-112.958-112.958z" fill="#ffb09e"/><g><path d="m88.617 120.026h52.288v-7.426c0-13.22-10.717-23.936-23.936-23.936h-19.604c-4.629 11.058-7.005 20.628-8.748 31.362z" fill="#aa6a51"/></g><path d="m224.293 203.392-3.053-5.206c-7.235-12.334-8.672-27.229-3.928-40.718l-1.403-13.052h-95.203c-2.746 4.79-5.149 9.801-7.18 14.998 6.893 9.752 39.153 52.579 68.36 43.977l-3.053-5.206c-3.401-5.797-5.503-12.162-6.302-18.679 13.72 14.288 33.347 29.309 51.762 23.886z" fill="#ffb09e"/><path d="m232.797 192.053-3.053-5.205c-7.235-12.334-8.672-27.229-3.928-40.718l-1.403-13.052h-103.728v13.052s36.793 55.616 69.705 45.923l-3.053-5.205c-3.401-5.798-5.503-12.162-6.302-18.679 13.72 14.286 33.347 29.308 51.762 23.884z" fill="#aa6a51"/><path d="m431.568 146.13h-129.628v-26.104h125.215c8.427 0 15.259 6.832 15.259 15.259-.001 5.99-4.857 10.845-10.846 10.845z" fill="#0268b4"/><path d="m88.617 120.026c-.954 6.402-1.452 12.953-1.452 19.62v6.483h53.74v-26.104h-52.288z" fill="#b2caec"/><g><path d="m229.743 186.848c-7.235-12.334-8.672-27.229-3.928-40.718l-1.403-13.051h-25.512l1.403 13.051c-4.744 13.489-3.307 28.384 3.928 40.718l.117.199c9.156 5.162 18.962 7.8 28.449 5.006z" fill="#935b44"/></g><path d="m298.436 260.284c-6.031 0-10.504 0-16.633 0-4.131 0-7.48 3.349-7.48 7.48s3.349 7.48 7.48 7.48h16.633c4.131 0 7.48-3.349 7.48-7.48s-3.349-7.48-7.48-7.48z" fill="#fe8f83"/><path d="m216.701 7.559c-53.837.999-99.806 34.16-119.456 81.105h13.936 2.835 2.835c13.22 0 23.936 10.716 23.936 23.936v33.53h204.885v-6.483c-.001-71.918-57.458-130.398-128.971-132.088z" fill="#3c87d0"/><path d="m218.061 7.521c-5.161.043-10.251.386-15.254 1.004 65.252 8.068 115.768 63.687 115.768 131.121v6.483h29.931v-6.483c0-72.412-58.248-131.211-130.445-132.125z" fill="#0078c8"/></g><g><path d="m243.149 267.744c-4.142 0-7.5 3.358-7.5 7.5 0 9.104-7.406 16.51-16.51 16.51s-16.51-7.406-16.51-16.51c0-4.142-3.358-7.5-7.5-7.5s-7.5 3.358-7.5 7.5c0 17.375 14.135 31.51 31.51 31.51s31.51-14.135 31.51-31.51c0-4.142-3.357-7.5-7.5-7.5z"/><path d="m163.956 211.585c-4.142 0-7.5 3.358-7.5 7.5v20.819c0 4.142 3.358 7.5 7.5 7.5s7.5-3.358 7.5-7.5v-20.819c0-4.142-3.358-7.5-7.5-7.5z"/><path d="m274.323 211.585c-4.143 0-7.5 3.358-7.5 7.5v20.819c0 4.142 3.357 7.5 7.5 7.5s7.5-3.358 7.5-7.5v-20.819c0-4.142-3.357-7.5-7.5-7.5z"/><path d="m429.452 112.526h-73.106c-5.418-27.763-19.15-53.155-39.994-73.301-2.979-2.879-7.727-2.798-10.604.18-2.879 2.979-2.798 7.727.181 10.605 23.864 23.065 37.731 54.3 38.012 88.619-6.664 0-188.7 0-195.535 0 0-23.498 0-11.169 0-26.03 0-17.334-14.102-31.437-31.436-31.437h-7.702c20.987-39.329 62.438-66.162 110.045-66.162 21.044 0 41.842 5.34 60.144 15.442 3.626 2.004 8.188.685 10.19-2.941 2.001-3.626.685-8.189-2.942-10.19-20.515-11.325-43.819-17.311-67.392-17.311-58.099 0-107.892 35.696-128.867 85.768-12.745 30.448-10.781 49.709-10.781 96.908-11.995 8.279-19.876 22.112-19.876 37.758v.236c0 23.748 18.148 43.335 41.303 45.627 7.856 35.938 31.799 65.926 63.877 82.008v16.549h-39.407c-29.433 0-53.377 23.945-53.377 53.378v26.8c0 4.142 3.358 7.5 7.5 7.5s7.5-3.358 7.5-7.5v-26.8c0-21.162 17.216-38.378 38.377-38.378h39.917c3.554 25.747 25.146 45.551 51.152 46.811 28.275 1.383 52.692-19.179 56.509-46.811h39.921c17.874 0 33.636 12.646 37.478 30.068.002.006.003.012.004.018.595 2.702.896 5.492.896 8.292v78.768h-264.253v-16.969c0-4.142-3.358-7.5-7.5-7.5s-7.5 3.358-7.5 7.5v24.469c0 4.142 3.358 7.5 7.5 7.5h279.254c4.143 0 7.5-3.358 7.5-7.5v-86.27c0-3.891-.421-7.774-1.252-11.541-.001-.004-.002-.009-.003-.013-5.352-24.236-27.27-41.824-52.123-41.824h-39.406v-16.706c31.921-16.12 55.733-46.031 63.563-81.853 23.14-2.307 41.271-21.887 41.271-45.625v-.236c0-15.493-7.731-29.206-19.529-37.511v-29.291h74.906c10.115 0 18.345-8.229 18.345-18.345-.001-12.549-10.211-22.759-22.76-22.759zm-213.228 41.104c-1.673 10.708-.208 21.685 4.268 31.628-13.017-2.348-26.333-14.25-34.048-22.284-4.976-5.181-13.729-1.031-12.854 6.108.813 6.628 2.546 11.857 4.533 16.216-15.279-2.667-31.739-18.667-42.464-31.669 16.3.001 64.181.001 80.565.001zm-113.734-57.466h14.48c9.038 0 16.392 7.334 16.432 16.363h-35.755c1.248-5.604 2.866-11.07 4.843-16.363zm-7.23 31.362h38.146v11.104c-4.826 0-34.339 0-38.736 0 .031-3.872.243-7.526.59-11.104zm-20.471 93.143v-.236c0-14.536 10.142-26.9 23.951-30.058-.54 6.419-.791 50.995.005 60.371-13.703-3.142-23.956-15.434-23.956-30.077zm26.28-45.861c-1.812.179-4.283.584-6.404 1.105v-22.283h13.118c-2.89 6.832-5.135 13.91-6.714 21.178zm157.587 197.581c0 23.998-21.442 42.55-45.327 38.889-18.864-2.891-33.36-19.232-33.36-38.925v-17.728c25.224 8.599 53.772 8.465 78.687-.107zm64.975-114.905c-7.927 48.901-49.401 86.145-99.13 88.405-55.672 2.598-101.464-36.843-109.822-88.406-1.751-10.854-1.366-14.91-1.366-56.972 0-13.38 2.576-27.34 8.153-40.663 13.08 16.572 42.31 47.863 71.042 39.4 3.248-.956 5.445-3.967 5.38-7.34 9.404 5.813 18.487 8.767 27.034 8.767 3.421 0 6.758-.474 9.993-1.427 2.214-.652 4.005-2.288 4.854-4.434 1.652-4.174-.655-6.813-3.558-11.76-5.246-8.944-6.877-19.422-4.724-29.423h82.535c7.167 14.429 10.974 30.7 10.974 46.881.001 41.755.375 46.187-1.365 56.972zm13.611-82.674c-1.579-7.268-3.823-14.348-6.714-21.18h13.433v22.367c-2.157-.551-4.82-.997-6.719-1.187zm26.247 45.623v.236c0 14.631-10.236 26.917-23.923 30.07.806-9.433.532-54.074.004-60.353 13.915 3.208 23.919 15.631 23.919 30.047zm70.377-81.803h-74.91c-.03-4.01-.233-7.734-.519-11.104h71.015c4.278 0 7.759 3.48 7.759 7.759 0 1.844-1.5 3.345-3.345 3.345z"/></g></g></svg>