<?xml version="1.0" encoding="iso-8859-1"?>
<!-- Generator: Adobe Illustrator 19.0.0, SVG Export Plug-In . SVG Version: 6.00 Build 0)  -->
<svg version="1.1" id="Capa_1" xmlns="http://www.w3.org/2000/svg" xmlns:xlink="http://www.w3.org/1999/xlink" x="0px" y="0px"
	 viewBox="0 0 512 512" style="enable-background:new 0 0 512 512;" xml:space="preserve">
<path style="fill:#FFD164;" d="M256,7.5c-75.262,0-136.274,61.012-136.274,136.274v61.457c0,107.55,66.785,162.529,66.785,162.529
	h205.764V143.774C392.273,68.512,331.262,7.5,256,7.5z"/>
<path style="fill:#FFC350;" d="M119.726,143.774v61.457c0,107.55,66.785,162.529,66.785,162.529H256V7.5
	C180.738,7.5,119.726,68.512,119.726,143.774z"/>
<path style="fill:#F7D291;" d="M408.282,396.981L325.49,367.76c-12.82-4.525-21.393-16.642-21.393-30.237v-49.459h-96.194v49.459
	c0,13.595-8.573,25.712-21.393,30.236l-82.793,29.221c-19.23,6.787-32.089,24.962-32.089,45.354V504.5H440.37v-62.165
	C440.371,421.943,427.512,403.768,408.282,396.981z"/>
<path style="fill:#A5CDFF;" d="M408.282,396.981l-68.898-24.317c-11.856,34.701-44.667,59.691-83.384,59.691
	s-71.528-24.99-83.384-59.691l-68.898,24.317c-19.23,6.787-32.089,24.962-32.089,45.354V504.5h368.742v-62.165
	C440.371,421.943,427.512,403.768,408.282,396.981z"/>
<path style="fill:#EDEBED;" d="M256,464.419c52.682,0,97.338-33.934,113.594-81.093l-30.21-10.663
	c-11.856,34.701-44.667,59.691-83.384,59.691s-71.528-24.99-83.384-59.691l-30.211,10.663
	C158.662,430.486,203.318,464.419,256,464.419z"/>
<path style="fill:#F0C382;" d="M207.903,325.906c13.042,5.808,27.268,9.411,42.305,10.118c1.94,0.091,3.872,0.137,5.792,0.137
	c17.103,0,33.353-3.645,48.097-10.11v-37.987h-96.194L207.903,325.906L207.903,325.906z"/>
<path style="fill:#FFE1A0;" d="M372.234,175.839h-9.159c-10.437,0-18.897-8.461-18.897-18.897v-13.167
	c0-22.136-17.944-40.081-40.081-40.081h-96.194c-22.136,0-40.081,17.945-40.081,40.081v13.167c0,10.437-8.46,18.897-18.897,18.897
	h-9.159c-11.068,0-20.04,8.972-20.04,20.04c0,11.068,8.972,20.04,20.04,20.04h12.429c4.106,53.795,48.958,96.194,103.805,96.194
	s99.699-42.398,103.805-96.194h12.429c11.068,0,20.04-8.973,20.04-20.04C392.273,184.811,383.302,175.839,372.234,175.839z"/>
<path style="fill:#FFD164;" d="M304.096,312.113v32.065c0,70.783,56.113,96.194,56.113,160.323h32.065V312.113H304.096z"/>
<path style="fill:#F7D291;" d="M372.234,175.839h-9.159c-10.437,0-18.897-8.461-18.897-18.897v-13.167
	c0-5.534-1.121-10.806-3.15-15.601c-4.056-9.59-11.739-17.273-21.329-21.33c-4.796-2.028-10.067-3.15-15.602-3.15h-96.194
	c-1.953,0-3.852,0.2-5.721,0.485c-0.676,0.1-1.339,0.225-2.002,0.358c-1.2,0.248-2.372,0.557-3.531,0.91
	c-1.139,0.342-2.249,0.73-3.343,1.169c-0.83,0.333-1.671,0.644-2.476,1.026c0.012,0.016,0.025,0.031,0.038,0.047
	c-2.468,1.186-4.849,2.524-7.015,4.159v0.044c-9.682,7.316-16.032,18.813-16.032,31.883v13.987c0,10.392-8.713,17.97-19.104,18.077
	h-7.808c-10.483,0-20.036,7.542-21.081,17.973c-1.202,11.996,8.186,22.108,19.937,22.108h12.429
	c4.106,53.795,48.958,96.194,103.805,96.194c5.484,0,10.83-0.534,16.083-1.351c-49.946-7.708-88.228-50.754-88.228-102.859v-48.986
	c0-0.15,0.001-0.3,0.004-0.449c0.31-19.62,24.466-29.176,39.211-16.229c41.339,36.297,95.212,57.649,153.173,57.649
	c3.929,0,8.122-0.15,12.61-0.417c1.314-1.462,2.107-2.344,3.421-3.806C392.158,184.695,383.23,175.839,372.234,175.839z"/>
<path style="fill:#FFE17D;" d="M256,7.5c-28.992,0-55.818,9.121-77.908,24.556c27.208,83.455,105.613,143.783,198.15,143.783
	c5.401,0,10.735-0.271,16.032-0.675v-31.39C392.273,68.512,331.262,7.5,256,7.5z"/>
<path d="M207.903,176.355c-4.142,0-7.5,3.358-7.5,7.5v8.016c0,4.142,3.358,7.5,7.5,7.5s7.5-3.358,7.5-7.5v-8.016
	C215.403,179.713,212.045,176.355,207.903,176.355z"/>
<path d="M304.096,176.355c-4.143,0-7.5,3.358-7.5,7.5v8.016c0,4.142,3.357,7.5,7.5,7.5s7.5-3.358,7.5-7.5v-8.016
	C311.596,179.713,308.239,176.355,304.096,176.355z"/>
<path d="M274.781,234.629c-2.737,2.701-9.299,5.855-18.781,5.855s-16.043-3.154-18.781-5.855c-2.949-2.91-7.698-2.877-10.606,0.071
	c-2.909,2.949-2.877,7.697,0.071,10.606c6.459,6.373,17.418,10.177,29.316,10.177c11.897,0,22.856-3.805,29.316-10.177
	c2.948-2.909,2.98-7.658,0.071-10.606S277.73,231.719,274.781,234.629z"/>
<path d="M410.778,389.909l-11.004-3.884V143.774C399.773,64.497,335.277,0,256,0S112.226,64.497,112.226,143.774v61.457
	c0,57.308,18.762,99.89,34.501,125.521c9.566,15.578,19.124,26.901,25.837,33.978l-71.341,25.179
	c-22.187,7.83-37.093,28.899-37.093,52.427V504.5c0,4.142,3.358,7.5,7.5,7.5s7.5-3.358,7.5-7.5v-62.165
	c0-4.992,0.925-9.83,2.626-14.326l37.925,32.507c5.452,4.673,8.578,11.471,8.578,18.651V504.5c0,4.142,3.358,7.5,7.5,7.5
	s7.5-3.358,7.5-7.5v-25.333c0-11.564-5.036-22.513-13.816-30.04l-39.755-34.075c4.423-4.876,10.048-8.712,16.528-10.999
	l31.671-11.178c19.603,47.513,66.331,79.044,118.114,79.044c28.488,0,55.975-9.466,78.311-26.814
	c10.185,17.714,18.399,35.832,18.399,59.395c0,4.142,3.357,7.5,7.5,7.5s7.5-3.358,7.5-7.5c0-33.365-14.285-56.986-28.101-79.83
	c-14.406-23.82-28.013-46.319-28.013-80.493v-8.016c0-4.142-3.357-7.5-7.5-7.5s-7.5,3.358-7.5,7.5v8.016
	c0,23.851,5.933,42.678,13.987,59.406c-14.924,13.744-34.158,21.271-54.584,21.271c-31.927,0-60.742-18.911-73.641-47.676
	l6.647-2.346c15.789-5.573,26.397-20.566,26.397-37.309v-25.55c12.59,4.928,26.282,7.639,40.597,7.639
	c56.313,0,103.051-41.921,110.632-96.193h4.457c4.912,0,9.587-1.231,13.686-3.386V504.5c0,4.142,3.357,7.5,7.5,7.5
	s7.5-3.358,7.5-7.5v-50.374l30.47-26.117c1.702,4.496,2.626,9.334,2.626,14.326V504.5c0,4.142,3.357,7.5,7.5,7.5s7.5-3.358,7.5-7.5
	v-62.165C447.871,418.808,432.965,397.739,410.778,389.909z M256,439.855c22.899,0,44.534-7.979,61.782-22.62
	c2.864,5.053,5.835,9.977,8.79,14.863C306.604,448.142,281.768,456.92,256,456.92c-45.443,0-86.468-27.514-103.943-69.046
	l16.127-5.692C183.229,416.928,217.725,439.855,256,439.855z M200.403,337.523c0,8.942-4.881,17.07-12.483,21.373
	c-12.401-11.944-55.185-58.651-60.204-138.268c3.72,1.811,7.836,2.791,12.05,2.791h5.598c4.855,34.791,25.795,64.501,55.04,81.351
	v32.753H200.403z M384.707,197.198c-0.63,6.292-6.612,11.221-13.618,11.221h-3.383v-0.439c0-4.141-3.356-7.499-7.497-7.5
	c-0.001,0-0.002,0-0.003,0c-4.14,0-7.497,3.354-7.5,7.495c-0.04,53.286-43.422,96.638-96.706,96.638
	c-53.326,0-96.71-43.384-96.71-96.709c0-4.142-3.358-7.5-7.5-7.5s-7.5,3.358-7.5,7.5v0.516h-4.524c-3.537,0-6.927-1.506-9.303-4.131
	c-2.407-2.66-3.533-6.115-3.171-9.729c0.631-6.292,6.613-11.221,13.62-11.221h2.861h0.001c8.426,0,16.349-3.282,22.307-9.24
	c5.959-5.958,9.241-13.881,9.241-22.308v-8.016c0-10.343,4.75-19.845,13.033-26.068c3.312-2.488,3.979-7.19,1.491-10.501
	s-7.19-3.979-10.501-1.491c-12.089,9.083-19.022,22.956-19.022,38.06v8.016c0,4.42-1.721,8.576-4.847,11.702
	c-3.125,3.125-7.281,4.847-11.701,4.847l0,0h-2.862c-4.913,0-9.588,1.231-13.687,3.387v-27.951
	c0-39.683,18.047-75.225,46.359-98.866c17.819,39.501,44.174,73.299,76.621,98.143c33.932,25.98,72.999,40.288,110.004,40.288
	h12.023c3.537,0,6.928,1.505,9.304,4.131C383.943,190.129,385.069,193.584,384.707,197.198z M372.233,168.339H360.21
	c-33.728,0-69.556-13.21-100.886-37.198c-31.284-23.953-56.569-56.847-73.378-95.366C206.122,22.642,230.184,15,256,15
	c71.007,0,128.774,57.768,128.774,128.774v27.594C380.928,169.401,376.633,168.339,372.233,168.339z M399.773,434.371v-32.439
	l6.012,2.122c6.479,2.287,12.104,6.123,16.527,10.999L399.773,434.371z"/>
<path d="M213.548,144.675l-24.048,8.016c-3.93,1.31-6.053,5.558-4.744,9.487c1.048,3.143,3.974,5.13,7.114,5.13
	c0.786,0,1.586-0.125,2.373-0.387l24.048-8.016c3.93-1.31,6.053-5.557,4.744-9.487C221.725,145.489,217.476,143.366,213.548,144.675
	z"/>
<g>
</g>
<g>
</g>
<g>
</g>
<g>
</g>
<g>
</g>
<g>
</g>
<g>
</g>
<g>
</g>
<g>
</g>
<g>
</g>
<g>
</g>
<g>
</g>
<g>
</g>
<g>
</g>
<g>
</g>
</svg>
