<?xml version="1.0" encoding="iso-8859-1"?>
<!-- Generator: Adobe Illustrator 19.0.0, SVG Export Plug-In . SVG Version: 6.00 Build 0)  -->
<svg version="1.1" id="Capa_1" xmlns="http://www.w3.org/2000/svg" xmlns:xlink="http://www.w3.org/1999/xlink" x="0px" y="0px"
	 viewBox="0 0 512 512" style="enable-background:new 0 0 512 512;" xml:space="preserve">
<path style="fill:#FFD164;" d="M399.363,256.274l-7.245-120.746C387.803,63.613,328.223,7.5,256.178,7.5
	S124.554,63.613,120.239,135.528l-7.245,120.746c-2.84,47.334,17.549,90.428,51.061,118.549l184.573-0.274
	C381.946,346.422,402.194,303.455,399.363,256.274z"/>
<path style="fill:#FFC350;" d="M120.239,135.528l-7.245,120.746c-2.84,47.334,17.549,90.428,51.061,118.549l92.124-0.137V7.5
	C184.133,7.5,124.554,63.613,120.239,135.528z"/>
<path style="fill:#F7D291;" d="M408.46,380.83l-82.792-29.221c-12.82-4.525-21.393-16.642-21.393-30.237v-49.459h-96.194v49.459
	c0,13.595-8.573,25.712-21.393,30.236l-82.793,29.221c-19.229,6.787-32.089,24.962-32.089,45.354v78.197h368.743v-78.197
	C440.549,405.792,427.69,387.617,408.46,380.83z"/>
<path style="fill:#FF8087;" d="M408.46,380.83l-82.792-29.221c-5.311-1.874-9.831-5.102-13.377-9.148v11.101
	c0,32.919-25.367,61.626-58.272,62.613c-34.048,1.021-61.97-26.275-61.97-60.093v-7.006c-1.696,0.981-3.464,1.863-5.36,2.532
	l-82.793,29.221c-19.23,6.787-32.089,24.962-32.089,45.354v78.197h368.742v-78.197C440.549,405.792,427.69,387.617,408.46,380.83z"
	/>
<path style="fill:#F0C382;" d="M208.082,326.123c14.753,6.391,31.02,9.92,48.097,9.92s33.344-3.529,48.097-9.92v-38.177h-96.194
	L208.082,326.123L208.082,326.123z"/>
<path style="fill:#FFE1A0;" d="M256.178,311.994L256.178,311.994c-57.554,0-104.21-46.656-104.21-104.21V95.559h208.419v112.226
	C360.388,265.338,313.732,311.994,256.178,311.994z"/>
<path style="fill:#F7D291;" d="M360.388,95.559H151.969v112.226c0,57.553,46.656,104.21,104.21,104.21
	c5.466,0,10.793-0.547,16.032-1.359c-49.921-7.729-88.177-50.764-88.177-102.851v-27.417c0-0.065,0-0.13,0-0.194
	c0.061-9.616,7.2-17.831,16.493-20.305c21.049-5.604,43.546-12.876,63.762-22.123c1.065,12.298,11.382,21.943,23.954,21.943
	c1.174,0,29.066-0.102,58.532-9.002c5.785-1.748,10.325-5.539,13.3-10.281c-0.031-0.192-0.115-0.362-0.153-0.551
	c0.153-0.035,0.314-0.07,0.466-0.106V95.559z"/>
<g>
	<polygon style="fill:#FFD164;" points="304.267,328.026 304.275,328.029 304.275,327.768 	"/>
	<polygon style="fill:#FFD164;" points="208.082,327.768 208.082,328.029 208.089,328.026 	"/>
</g>
<path style="fill:#FFE17D;" d="M247.906,7.746c-68.998,4.093-123.605,60.087-127.745,129.082l-0.703,11.718l0.447,3.125
	c0,0,120.242-16.032,168.339-56.113v40.081c0,0,25.173,0,51.579-7.98c10.248-3.097,20.566,4.643,20.566,15.348l0,0
	c19.651-4.632,31.018-25.265,24.354-44.324C365.225,42.862,310.565,4.028,247.906,7.746z"/>
<path style="fill:#E6646E;" d="M186.689,351.609l-43.783,15.453c0.611,21.997,5.1,43.853,13.236,63.361
	c8.77,21.025,29.114,34.61,51.831,34.61c4.581,0,9.168-0.566,13.632-1.682l34.574-8.644l34.573,8.644
	c4.465,1.116,9.051,1.682,13.633,1.682c22.718,0,43.063-13.586,51.831-34.611c8.135-19.507,12.625-41.362,13.236-63.36
	l-43.783-15.453c-5.31-1.874-9.83-5.102-13.377-9.148v11.101c0,32.919-25.367,61.626-58.272,62.613
	c-34.049,1.022-61.97-26.275-61.97-60.093v-7.006C190.352,350.058,188.585,350.94,186.689,351.609z"/>
<path style="fill:#FFFFFF;" d="M304.267,328.026l30.316,10.309c6.141,2.141,10.393,7.813,10.776,14.305
	c1.71,29-4.617,52.407-11.339,68.525c-6.127,14.691-21.993,22.716-37.436,18.855l-40.406-10.102l-40.406,10.102
	c-15.442,3.86-31.309-4.165-37.436-18.855c-6.723-16.118-13.05-39.525-11.339-68.525c0.383-6.493,4.635-12.164,10.776-14.305
	l30.316-10.309l-0.008-0.258v24.048c0,26.563,21.534,48.097,48.097,48.097s48.097-21.534,48.097-48.097v-24.048"/>
<path d="M410.956,374.108l-38.121-13.455c24.296-29.457,36.327-66.285,34.014-104.829l-7.244-120.746
	C395.06,59.333,332.059,0,256.178,0S117.297,59.333,112.752,135.079l-7.244,120.746c-2.309,38.48,9.697,75.285,33.936,104.73
	l-38.401,13.553c-22.187,7.83-37.093,28.899-37.093,52.427V504.5c0,4.142,3.357,7.5,7.5,7.5s7.5-3.358,7.5-7.5v-77.965
	c0-5.176,0.994-10.185,2.817-14.82l38.092,32.65c5.451,4.673,8.578,11.471,8.578,18.651v41.366c0,4.142,3.357,7.5,7.5,7.5
	s7.5-3.358,7.5-7.5v-41.366c0-11.564-5.036-22.513-13.816-30.04l-39.773-34.091c4.37-4.701,9.872-8.404,16.187-10.633l53.338-18.825
	c1.006,23.438,6.804,42.297,12.043,54.857c7.613,18.253,27.024,28.031,46.177,23.244l38.587-9.646l38.586,9.646
	c3.263,0.816,6.531,1.208,9.75,1.208c15.668,0,30.111-9.309,36.427-24.452c5.229-12.537,11.015-31.354,12.036-54.733l52.986,18.701
	c6.392,2.256,11.951,6.021,16.346,10.804l-39.574,33.92c-8.78,7.527-13.816,18.476-13.816,30.04v41.366c0,4.142,3.357,7.5,7.5,7.5
	s7.5-3.358,7.5-7.5v-41.366c0-7.18,3.127-13.978,8.578-18.651l37.823-32.419c1.766,4.57,2.728,9.499,2.728,14.589V504.5
	c0,4.142,3.357,7.5,7.5,7.5s7.5-3.358,7.5-7.5v-77.965C448.049,403.007,433.143,381.938,410.956,374.108z M120.48,256.723
	l5.904-98.408c22.462-3.395,106.642-17.729,154.359-48.091v25.416c0,4.142,3.357,7.5,7.5,7.5c1.073,0,26.594-0.094,53.749-8.3
	c2.565-0.774,5.277-0.299,7.442,1.309c2.194,1.629,3.453,4.129,3.453,6.859v64.896c0,26.696-10.642,51.551-29.964,69.985
	c-19.312,18.422-44.669,27.874-71.431,26.614c-24.93-1.174-48.165-12.197-65.428-31.04c-17.151-18.721-26.597-43.049-26.597-68.503
	v-29.238c0-4.142-3.357-7.5-7.5-7.5s-7.5,3.358-7.5,7.5v29.238c0,29.215,10.845,57.142,30.537,78.636
	c7.605,8.301,16.223,15.286,25.575,20.832v18.461l-25.276,8.595c-9.03,3.148-15.23,11.37-15.795,20.946
	c-0.021,0.357-0.025,0.702-0.044,1.058l-4.868,1.718C130.387,328.038,118.291,293.214,120.48,256.723z M327.098,418.51
	c-4.736,11.354-16.808,17.437-28.694,14.466l-40.405-10.102c-1.195-0.299-2.443-0.299-3.639,0l-40.406,10.102
	c-11.889,2.971-23.959-3.112-28.694-14.466c-5.843-14.009-12.455-36.692-10.774-65.197c0.207-3.509,2.467-6.517,5.704-7.646
	l20.393-6.934v13.316c0,30.656,24.941,55.597,55.598,55.597c10.976,0,21.593-3.196,30.703-9.241
	c3.452-2.291,4.393-6.945,2.103-10.396c-2.289-3.451-6.944-4.393-10.396-2.103c-6.646,4.41-14.395,6.74-22.41,6.74
	c-22.386,0-40.598-18.211-40.598-40.597V311.83c11.13,4.464,22.989,7.08,35.207,7.656c1.824,0.086,3.643,0.129,5.455,0.129
	c14.089,0,27.772-2.591,40.532-7.565v39.999c0,4.654-0.779,9.214-2.316,13.554c-1.382,3.904,0.662,8.19,4.566,9.573
	c0.828,0.293,1.673,0.432,2.504,0.432c3.088,0,5.98-1.922,7.07-4.999c2.107-5.952,3.176-12.196,3.176-18.561v-13.316l20.339,6.916
	c3.291,1.147,5.551,4.156,5.758,7.665C339.553,381.817,332.94,404.5,327.098,418.51z M336.997,331.466l-25.222-8.576v-18.031
	c7.686-4.431,14.901-9.819,21.502-16.117c22.319-21.292,34.61-50.001,34.61-80.838v-64.896c0-7.525-3.467-14.415-9.512-18.902
	c-6.013-4.465-13.564-5.787-20.724-3.624c-16.558,5.003-32.79,6.739-41.909,7.34V95.559c0-2.91-1.684-5.558-4.319-6.792
	c-2.635-1.235-5.746-0.832-7.982,1.03c-38.684,32.237-128.304,48.708-156.136,53.172l0.419-6.992
	C131.796,68.14,188.219,15,256.179,15c67.959,0,124.382,53.14,128.453,120.977l7.244,120.746
	c2.194,36.555-9.934,71.399-34.206,98.578l-4.774-1.685c-0.021-0.398-0.026-0.785-0.049-1.186
	C352.282,342.854,346.082,334.632,336.997,331.466z"/>
<path d="M256.179,263.5c11.898,0,22.857-3.805,29.315-10.178c2.948-2.909,2.98-7.658,0.071-10.606
	c-2.911-2.949-7.66-2.979-10.606-0.07c-2.737,2.701-9.298,5.854-18.78,5.854c-9.482,0-16.044-3.154-18.781-5.855
	c-2.948-2.908-7.697-2.877-10.606,0.071s-2.877,7.698,0.071,10.606C233.322,259.695,244.281,263.5,256.179,263.5z"/>
<path d="M208.081,184.252c-4.143,0-7.5,3.358-7.5,7.5v8.016c0,4.142,3.357,7.5,7.5,7.5s7.5-3.358,7.5-7.5v-8.016
	C215.581,187.61,212.224,184.252,208.081,184.252z"/>
<path d="M304.275,184.252c-4.143,0-7.5,3.358-7.5,7.5v8.016c0,4.142,3.357,7.5,7.5,7.5s7.5-3.358,7.5-7.5v-8.016
	C311.775,187.61,308.418,184.252,304.275,184.252z"/>
<path d="M200.065,175.204h16.032c4.143,0,7.5-3.358,7.5-7.5s-3.357-7.5-7.5-7.5h-16.032c-4.143,0-7.5,3.358-7.5,7.5
	S195.923,175.204,200.065,175.204z"/>
<path d="M296.259,175.204h16.032c4.143,0,7.5-3.358,7.5-7.5s-3.357-7.5-7.5-7.5h-16.032c-4.143,0-7.5,3.358-7.5,7.5
	S292.116,175.204,296.259,175.204z"/>
<g>
</g>
<g>
</g>
<g>
</g>
<g>
</g>
<g>
</g>
<g>
</g>
<g>
</g>
<g>
</g>
<g>
</g>
<g>
</g>
<g>
</g>
<g>
</g>
<g>
</g>
<g>
</g>
<g>
</g>
</svg>
