<svg xmlns="http://www.w3.org/2000/svg" xmlns:xlink="http://www.w3.org/1999/xlink" id="Capa_1" width="54" height="54" version="1.1" viewBox="0 0 512 512" xml:space="preserve"><path style="fill:#3b4145" d="M256,7.5L196,256l60,248.5c137.243,0,248.5-111.257,248.5-248.5S393.243,7.5,256,7.5z"/><path style="fill:#525a61" d="M7.5,256c0,137.243,111.257,248.5,248.5,248.5V7.5C118.757,7.5,7.5,118.757,7.5,256z"/><path style="fill:#def1ff" d="M256,37.5v437c120.674,0,218.5-97.826,218.5-218.5S376.674,37.5,256,37.5z"/><path style="fill:#fff" d="M444.5,256c0-120.674-84.394-218.5-188.5-218.5C135.326,37.5,37.5,135.326,37.5,256	S135.326,474.5,256,474.5C360.106,474.5,444.5,376.674,444.5,256z"/><path style="fill:#525a61" d="M325.5,206.5V190c0-38.322-31.178-69.5-69.5-69.5h-49.5c-11.046,0-20,8.954-20,20v231	c0,11.046,8.954,20,20,20s20-8.954,20-20V276H256c16.267,0,29.5,13.233,29.5,29.5v66c0,11.046,8.954,20,20,20s20-8.954,20-20v-66	c0-19.358-7.963-36.886-20.777-49.5C317.537,243.386,325.5,225.858,325.5,206.5z M226.5,236v-75.5H256	c16.267,0,29.5,13.233,29.5,29.5v16.5c0,16.267-13.233,29.5-29.5,29.5H226.5z"/><path d="M437.02,74.98C388.668,26.629,324.38,0,256,0S123.333,26.629,74.98,74.98C26.629,123.332,0,187.62,0,256	s26.629,132.668,74.98,181.02C123.333,485.371,187.62,512,256,512s132.668-26.629,181.02-74.98S512,324.38,512,256	S485.371,123.332,437.02,74.98z M256,497C123.112,497,15,388.888,15,256S123.112,15,256,15s241,108.112,241,241S388.888,497,256,497	z"/><path d="M415.806,96.194C373.12,53.508,316.366,30,256,30c-54.612,0-107.336,19.748-148.458,55.606	c-3.122,2.722-3.446,7.46-0.724,10.581c2.722,3.123,7.46,3.448,10.582,0.724C155.791,63.436,205.013,45,256,45	c116.346,0,211,94.654,211,211s-94.654,211-211,211S45,372.346,45,256c0-50.987,18.436-100.21,51.911-138.6	c2.722-3.121,2.398-7.859-0.724-10.581c-3.122-2.724-7.859-2.4-10.582,0.724C49.748,148.664,30,201.388,30,256	c0,60.367,23.508,117.121,66.194,159.807S195.633,482,256,482s117.12-23.508,159.806-66.193C458.492,373.121,482,316.367,482,256	C482,195.634,458.492,138.88,415.806,96.194z"/><path d="M226.5,243.5H256c20.402,0,37-16.598,37-37V190c0-20.402-16.598-37-37-37h-29.5c-4.142,0-7.5,3.357-7.5,7.5V236	C219,240.143,222.358,243.5,226.5,243.5z M234,168h22c12.131,0,22,9.869,22,22v16.5c0,12.131-9.869,22-22,22h-22V168z"/><path d="M333,190c0-42.458-34.542-77-77-77h-49.5c-15.164,0-27.5,12.337-27.5,27.5v231c0,15.163,12.336,27.5,27.5,27.5	s27.5-12.337,27.5-27.5v-32.75c0-4.143-3.358-7.5-7.5-7.5s-7.5,3.357-7.5,7.5v32.75c0,6.893-5.607,12.5-12.5,12.5	s-12.5-5.607-12.5-12.5v-231c0-6.893,5.607-12.5,12.5-12.5H256c34.187,0,62,27.813,62,62v16.5c0,16.706-6.584,32.387-18.539,44.155	c-1.432,1.409-2.238,3.335-2.238,5.345c0,2.01,0.807,3.936,2.238,5.345C311.416,273.113,318,288.794,318,305.5v66	c0,6.893-5.607,12.5-12.5,12.5s-12.5-5.607-12.5-12.5v-66c0-20.402-16.598-37-37-37h-29.5c-4.142,0-7.5,3.357-7.5,7.5v32.75	c0,4.143,3.358,7.5,7.5,7.5s7.5-3.357,7.5-7.5V283.5h22c12.131,0,22,9.869,22,22v66c0,15.163,12.337,27.5,27.5,27.5	s27.5-12.337,27.5-27.5v-66c0-18.318-6.366-35.641-18.063-49.5C326.634,242.141,333,224.818,333,206.5V190z"/></svg>